<?xml version="1.0" encoding="UTF-8"?><svg id="uuid-0ed91424-3bc1-4261-aef1-48ecbaf94aea" xmlns="http://www.w3.org/2000/svg" viewBox="0 0 291.2553728342 68.8797518381"><defs><style>.uuid-10a36a8b-cc8e-49f8-a5b7-b71b1febcd7c{stroke:#e5a852;stroke-width:10px;}.uuid-10a36a8b-cc8e-49f8-a5b7-b71b1febcd7c,.uuid-4da4f452-f754-4221-bd15-b2a95e69be16{fill:#fff;}.uuid-10a36a8b-cc8e-49f8-a5b7-b71b1febcd7c,.uuid-33b2ed3c-045c-4e41-bc2b-14c33cca3b21{stroke-miterlimit:10;}.uuid-33b2ed3c-045c-4e41-bc2b-14c33cca3b21{fill:#eadf39;stroke:#fff;stroke-width:25px;}</style></defs><path class="uuid-33b2ed3c-045c-4e41-bc2b-14c33cca3b21" d="M12.7515262698,12.6838121159c4.0863321341-.1897243038,13.3471257002-.0079767648,16.5126129357-.0688064556,7.8185656321-.2210311375,15.0481425112,2.5121785739,15.3168661817,10.2472777155.140478473,2.6054827036-.5379650796,5.6750336725-2.270727264,7.6620459542-.8696668432,1.1071816668-2.2859014056,1.6836601791-2.206682151,2.3262347117.0070778717.081221749.0338837183.1638353829.0799965007.2488230666.3308043024.6617870491,2.1651557948,1.5799946669,3.1698436511,2.6802554899,1.8774696018,1.8768583718,2.5341311884,4.6229742395,2.4498344908,7.2836727205-.1175523238,7.6376806696-5.4491193153,12.2139515152-14.1424770699,13.0120896297-2.4847253682.2426743503-3.9364847527.2204611507-6.5977220654.2172499215-4.1420468295-.1332930706-10.6896119037.2755468109-12.4203979175-.1780107867-.0845322339-3.1526184581-.308321754-34.068067432.071745999-43.4144681109l.0371067089-.0163638565ZM22.6808685562,30.3050233931c1.4769222113.3164127326,4.5266179707.0406094326,6.5850521758.1291676313,2.0104619792.0088531858,4.0635984143-.0809046977,6.0052973374-.9073675868,2.2152879009-.9084021548,3.6222571834-2.9057983239,3.6687722818-5.27362974.3633186153-5.4138091856-6.1060591422-6.3542751029-10.7063281275-6.118502254-1.5652109026.0058797472-3.783046621-.0136289587-4.784870379.0121439817-.4668545865.0397652196-.7746636467.014187371-.9317601514.4053130712-.184245006,1.5793980643-.0175361086,5.8435259097-.0726809469,8.9798400393.0360558315,1.5632472856-.1067795034,2.4908889487.1810037347,2.7326515227l.0555140751.0403833345ZM22.9179012693,48.9116650811c.7528046069.2532118411,1.9921193106.0635002701,3.8725995081.1213294246,2.6438249729-.0572605892,4.6543804565.1990936159,7.1119029908-.3665511069,4.1807468443-.9936991048,6.0411985785-4.2341597503,5.3021866332-7.8489616772-1.0445614446-4.72221228-5.733927446-5.3620432468-10.0108485743-5.1633260427-1.8467632074.0033561468-4.313257575-.0075823735-5.441611334.0061780403-.5911154999.0096627795-1.034662283.041655628-1.0471858713.6645685277-.037443209,1.3503266442-.0064496508,6.2346701396-.0165916963,9.4587792626.0759048105,1.6709798703-.1784674994,2.5529778739.1755402803,3.090001976l.0540080635.0379815956Z"/><path class="uuid-33b2ed3c-045c-4e41-bc2b-14c33cca3b21" d="M58.5029931145,56.231872473c-1.6444889478.1501005671-4.9782852473.0287744378-6.5282668468.0462628993-.6987213724-.0612463668-.9371756769.0124924938-.9787365317-.5046327447.1665702395-4.5424728911-.3321302594-33.820689156.1703378065-43.080294951,1.6708645197-.3161298494,5.3084360084-.0712687591,6.704002758-.1243199264.5500159227.0548970546.8211694347-.0303061783.9607715351.3412403972.0470520609,3.5351266613.0100764725,26.5988335788.0213723384,34.2943026077-.0045321958,4.4369687426.0091242542,7.7624199141-.0070242568,8.6823801143-.0162984905.1811717177-.0699204252.2752761698-.2747905251.3296174107l-.0676662775.0154441928Z"/><path class="uuid-33b2ed3c-045c-4e41-bc2b-14c33cca3b21" d="M73.8302626625,56.2511731026c-7.1503982677-.30859151-9.8398647404-5.225420422-9.3378879859-11.9966635288.1286596744-3.2281802006-.3784998292-7.5240934879.5125577468-10.0658542902,1.822846215-5.5081139533,8.5787270856-6.860794602,13.8272875583-6.4245970514,6.0490596304-.110514906,11.8051420595,3.7841432765,11.5107813647,9.7823123189-.1924933673,4.1289733708.5340600584,8.880199227-.5142909298,12.9496770946-1.9506994785,6.5606388143-10.2874157995,5.9099449222-15.826473964,5.7640792125l-.1719737901-.0089537556ZM78.9864392341,50.7503135027c3.0779994987-.3424392722,4.0823016659-3.1959197689,3.8047756176-5.9218195306-.006974515-1.7713633156.0201576147-4.6037943183-.0168752254-6.1108126486.0516491551-4.5858754974-6.4746543395-5.801607422-9.4458755283-3.1848541748-1.5636993085,1.6884808106-1.303262143,3.0950536303-1.3368607872,5.7438840451-.0466739493,5.702795501-.809714952,10.2137119581,6.7979222388,9.4990992859l.1969136845-.0254969769Z"/><path class="uuid-33b2ed3c-045c-4e41-bc2b-14c33cca3b21" d="M112.8543409849,47.1813682292c.4075542344-.3132620328.952990132-.400813978,1.4777978734-.44931747,1.4610328155-.0379161704,3.1399352214-.2085183201,3.838158073.6974422108,1.1876876582,3.8382661783-3.1680835647,8.1708875484-6.4425288294,8.6397241153-5.3092862173.3042300724-12.5231435052,1.4879642118-15.5430676758-4.5836844374-1.5510960777-3.8241589938-.6296403233-8.4022562478-.8677807563-12.4111027061-.632847121-6.0783958042,3.0909748239-9.5594585352,8.9850242786-10.1418919101,3.2622820658-.2421934938,6.8387393782-.3577292397,9.5638385226,1.7462297855,1.4702597783,1.0721975497,2.6786052033,2.5899574176,3.404456786,4.1151833961.234734448.5138954908.5067047248,1.1282568649.3003403433,1.6609683478-.5220053914.9966943371-2.5359245287,1.069556979-4.0961954103,1.1657714971-1.3468577058.0682737334-2.2700443244-.7430829835-3.2602051925-1.498909401-2.3147825198-1.6383781967-6.7105113665-1.3357945096-8.2370441419,1.4089130617-.9408361505,2.2406946635-.3342900971,5.2734321459-.4965862712,7.6385968189-.6022014432,4.9323179637,5.0221129201,6.5970868358,8.7993870813,4.9329203395,1.3894010553-.5404015965,1.6602342446-1.8656655969,2.4789704936-2.8411873454l.0954348256-.0796563027Z"/><path class="uuid-33b2ed3c-045c-4e41-bc2b-14c33cca3b21" d="M148.0991106827,28.0201760342c.2941968397,1.1643508888.0986432681,3.6595159683.1503152421,5.1017531966-.0329863592.9979424212.0547472608,1.7165886336-.3641280823,2.455484016-1.7281952883,1.7072300401-7.5653831071,4.5269489036-9.3648056543,5.8282475439-.6394594713.3770098496-.6344786307.760412051-.0000707578,1.139128488,1.5429816536.9888194011,6.619698307,3.9260082414,8.4930950096,5.0945693378.6301872955.3957807593,1.0618267001.8374205526,1.1541209054,1.6127464104.0595843549,1.7746698655.3102109735,5.2694317124-.1351322217,6.821221765-.287719496.3545528323-1.2171718859-.4010079712-2.7950520154-1.2595974187-3.6467930173-2.1015954864-8.2560037895-4.7615334525-11.9383298581-6.8785049959-.4398251664-.1985367918-.9094168268-.6300047197-1.1275513964-.1025941767-.4045708673,1.7494828491.2460734644,5.7128019138-.3549273109,7.8920022023-.2395268565.4354123384-.6329854279.5279365159-1.1594651343.5934588353-1.0537238997.0883328851-2.572425739.0411311852-3.6828002303.0515573896-.8736741132-.002296822-1.5432280519-.007215177-1.9333520922-.0623026491-.7274631605-.0945387283-.5877200522-.4013047789-.609464514-1.1291342042.0018660151-6.0379993768-.0037345874-37.6549454066.0028048272-41.9789643196.0341300243-.708611293.3332062651-.5910256647,1.3911846217-.6746294798.6434591366-.0158039078,1.5776494544-.0108130844,2.53457864-.0118669247,1.480557124.0927927467,2.5972532384-.2392278675,3.5051889883.3373410685.4784167578,2.4781884845.0425642822,11.6487670303.1861147857,18.1157096863.1520137924,2.4916959809-.4180051314,5.7917780194.4951686711,5.2678671814,2.6495414206-1.3728397333,11.8373196059-6.5994409286,14.668955409-8.1368124417.3045308148-.1446500563.6265748043-.3736884063.8502382254-.1312411438l.0333139421.0545606331Z"/><path class="uuid-33b2ed3c-045c-4e41-bc2b-14c33cca3b21" d="M187.8869176275,43.7083616794c.5853587563,3.4942894496-1.7293437845,7.4180229178-4.1819806358,9.4807500649-2.6171551585,2.2575396184-6.4769713385,3.1380694775-9.968535983,3.0952707007-7.5034702922.1266457571-16.7543911483.7779326229-19.3965845328-8.8180148827-.4346970479-1.6849203128-.5651101191-3.2933808987-.5490677736-4.9616296185-.001033487-2.6151276476-.0001716916-9.2881957372-.000457428-13.091469628-.8303795664-10.1317140961,5.1195996505-17.0395258861,15.5923987557-16.7890597117,3.8256210778.0347187966,7.1769186461-.3052010716,10.5821010575,1.0607849183,2.8204220405,1.1368444476,5.0004119131,3.2290962529,6.4949198438,5.8394156387.3808486707.6971425669.9027984172,1.5494763947.7358870586,2.325363322-.6742633903,1.4161332904-2.6019180137,1.403791571-4.4334398582,2.1302529665-.7595887057.2290742634-1.5846192301.498678398-2.3471020636.4742933628-1.2483347216.000608109-1.9269126629-1.1268341822-3.2010220259-2.0170798094-2.0766763713-1.4835150119-4.9792204385-1.2810099561-7.4780274495-1.155554644-8.7693875911.6103181911-5.8592449389,10.7902558781-6.3453364159,16.7555345518.2035497219,4.1578689127-.8168611236,8.2290870611,3.1713940201,10.1203950251,2.4090357309.8252752776,5.3351048757.6105933781,7.7779341748.4250707093,2.1702933823-.2355921645,3.8901422853-1.5731298757,4.6568412592-3.549780163.6116945054-2.0205928401,2.3088527414-2.2061920263,4.1729831882-2.118972587,1.7059390117.0792349986,4.0010712499-.3143887768,4.6574933671.6886266776l.0596014413.1058031068Z"/><path class="uuid-33b2ed3c-045c-4e41-bc2b-14c33cca3b21" d="M200.7301582127,56.2511731026c-7.150417473-.3086156341-9.8404152431-5.2252042547-9.3383694616-11.996663527.1286716701-3.2281866197-.3785359402-7.5240958836.5126076871-10.0658542918,1.8230840841-5.5081699204,8.5795573262-6.8607584239,13.8282104474-6.4245970946,6.0490437108-.1105531283,11.8046991263,3.7842195519,11.5102975651,9.7823123966-.1924954512,4.1289733832.5340599536,8.8801991544-.5142916916,12.9496770599-1.9507011486,6.5606412297-10.2874184437,5.9099440711-15.8264794039,5.7640792126l-.1719751424-.0089537556ZM205.8860023302,50.7503135027c3.078161953-.3424381358,4.0826943892-3.1957333805,3.8051148206-5.9218195619-.0069746161-1.7713632904.0201580188-4.603794298-.016875462-6.1108126173.0515708655-4.5858699592-6.4749318722-5.8015943251-9.4460232597-3.1848542349-1.5635885673,1.6885252747-1.3030920629,3.095058993-1.3367128032,5.7438841002-.0466444647,5.7024318077-.8097970648,10.2136944631,6.797584311,9.4990992909l.1969123933-.0254969769Z"/><path class="uuid-33b2ed3c-045c-4e41-bc2b-14c33cca3b21" d="M235.0519682746,27.7166362482c1.3704479039-.038215661,3.4661397041.7058912301,4.1267791198.6029486313.1985921461-.0444411904.3167088116-.1644434875.392751291-.3647845634.3099453079-2.8572609879.0198301077-11.1290778965.1262555296-14.0453184915.0171179096-.3468078818.0169923796-.6623759978.1954664134-.9156576482.2603690953-.3152437734.7190036829-.3208466206,1.1317443294-.3550093958,1.2634109631-.0436786625,3.9296670782-.0225763171,5.193069305-.0147703062.5892029441.0572557185,1.3967244396-.075358641,1.3305329902.5893037505.0071853829,3.9571922558.0010775092,34.4962572527.0031125067,41.4828168929-.0619724587.9776500543.2132085543,1.4178095534-.4675084455,1.5276470867-1.5148315318.1452939552-3.5142220473.0514236053-5.3212322116.05047155-1.3894135089.0829322503-2.0977330712-1.1433163025-2.8904418423-1.1310746565-.3657547199-.0036626049-.6752331436.097051452-1.0683340574.2354424134-4.3050396811,1.682010794-11.0154947125,1.2970584832-13.9555555757-2.7204368839-1.6871385309-2.4079815934-1.5715961539-4.813465012-1.556653738-7.7388054576.1073524852-3.3185314267-.2590042366-8.0137067535.2333671764-11.038480939,1.2306027131-5.9722295651,7.2888469694-6.5475226739,12.3346031853-6.1730460625l.192044024.0087540797ZM235.2383970553,49.6981001559c5.2577799883-.6742523272,3.8578049773-6.3626225908,4.032954849-10.2328080404.5092722072-5.6054680037-2.1508808104-7.0925418822-7.0951589345-6.5047988397-3.7600525305.6707060617-3.8056139677,3.9121072797-3.704455678,7.4618574065.0437242867,5.7501372599-.9940792152,10.0673526365,6.604811261,9.2927933101l.1618485024-.0170438365Z"/><path class="uuid-33b2ed3c-045c-4e41-bc2b-14c33cca3b21" d="M267.8488442429,27.7839684809c9.501455677.7655296579,11.0883308784,6.8624409216,10.4198915089,15.1408262442-.0483787707.6008609288-.2861517643.9655519046-.8788886587.9859664875-2.2734936389.0572199125-8.9865642989.0053565009-12.1833749315.0226200237-2.5698525867.2597299558-4.930532142-.9927667068-4.7482568978,1.9415294988-.2662829292,4.7193385972,5.1039019862,5.9825577936,8.8891118996,4.8303719191,1.8662427712-.3908164401,2.1109431411-2.5416151888,3.6883906278-3.2412749222,1.4454547886-.4357757107,4.1259651265-.4523042457,5.0813047381.1219710086.9580101263.6843864276.6046243924,2.0710875564.4162796,3.0741987361-1.0121799932,4.8218927588-6.3462634686,5.6413349616-10.4754680592,5.626054075-10.2992546672.7129556805-15.6558123402-2.5406760368-14.9314243981-13.5543681865.1017654762-2.9735156791-.3402319818-5.4300431929.5663254633-8.1585233691,1.7282977468-5.4654022188,8.5573402209-7.3627694546,13.9615394016-6.799693343l.1945697061.0103218277ZM260.5126670932,39.2614767553c.0840970883.2436291467.3297850897.1533918021.814021015.1723578268,1.533982334-.0009551936,3.3310478468.0006884889,5.0556605428-.000002091,2.0569551752-.004789528,4.0228697216.0097393666,4.6845218262-.0075472747.1070845862-.017430546.2081954217-.0696253573.2670839205-.1648347262,1.4702341452-7.5835279744-12.1297648486-7.800875946-10.8466837444-.093774604l.0253964399.0938008692Z"/><path class="uuid-10a36a8b-cc8e-49f8-a5b7-b71b1febcd7c" d="M12.2331250188,12.6838121159c4.0863321341-.1897243038,13.3471257002-.0079767648,16.5126129357-.0688064556,7.8185656321-.2210311375,15.0481425112,2.5121785739,15.3168661817,10.2472777155.140478473,2.6054827036-.5379650796,5.6750336725-2.270727264,7.6620459542-.8696668432,1.1071816668-2.2859014056,1.6836601791-2.206682151,2.3262347117.0070778717.081221749.0338837183.1638353829.0799965007.2488230666.3308043024.6617870491,2.1651557948,1.5799946669,3.1698436511,2.6802554899,1.8774696018,1.8768583718,2.5341311884,4.6229742395,2.4498344908,7.2836727205-.1175523238,7.6376806696-5.4491193153,12.2139515152-14.1424770699,13.0120896297-2.4847253682.2426743503-3.9364847527.2204611507-6.5977220654.2172499215-4.1420468295-.1332930706-10.6896119037.2755468109-12.4203979175-.1780107867-.0845322339-3.1526184581-.308321754-34.068067432.071745999-43.4144681109l.0371067089-.0163638565ZM22.1624673052,30.3050233931c1.4769222113.3164127326,4.5266179707.0406094326,6.5850521758.1291676313,2.0104619792.0088531858,4.0635984143-.0809046977,6.0052973374-.9073675868,2.2152879009-.9084021548,3.6222571834-2.9057983239,3.6687722818-5.27362974.3633186153-5.4138091856-6.1060591422-6.3542751029-10.7063281275-6.118502254-1.5652109026.0058797472-3.783046621-.0136289587-4.784870379.0121439817-.4668545865.0397652196-.7746636467.014187371-.9317601514.4053130712-.184245006,1.5793980643-.0175361086,5.8435259097-.0726809469,8.9798400393.0360558315,1.5632472856-.1067795034,2.4908889487.1810037347,2.7326515227l.0555140751.0403833345ZM22.3995000183,48.9116650811c.7528046069.2532118411,1.9921193106.0635002701,3.8725995081.1213294246,2.6438249729-.0572605892,4.6543804565.1990936159,7.1119029908-.3665511069,4.1807468443-.9936991048,6.0411985785-4.2341597503,5.3021866332-7.8489616772-1.0445614446-4.72221228-5.733927446-5.3620432468-10.0108485743-5.1633260427-1.8467632074.0033561468-4.313257575-.0075823735-5.441611334.0061780403-.5911154999.0096627795-1.034662283.041655628-1.0471858713.6645685277-.037443209,1.3503266442-.0064496508,6.2346701396-.0165916963,9.4587792626.0759048105,1.6709798703-.1784674994,2.5529778739.1755402803,3.090001976l.0540080635.0379815956Z"/><path class="uuid-10a36a8b-cc8e-49f8-a5b7-b71b1febcd7c" d="M57.9845918635,56.231872473c-1.6444889478.1501005671-4.9782852473.0287744378-6.5282668468.0462628993-.6987213724-.0612463668-.9371756769.0124924938-.9787365317-.5046327447.1665702395-4.5424728911-.3321302594-33.820689156.1703378065-43.080294951,1.6708645197-.3161298494,5.3084360084-.0712687591,6.704002758-.1243199264.5500159227.0548970546.8211694347-.0303061783.9607715351.3412403972.0470520609,3.5351266613.0100764725,26.5988335788.0213723384,34.2943026077-.0045321958,4.4369687426.0091242542,7.7624199141-.0070242568,8.6823801143-.0162984905.1811717177-.0699204252.2752761698-.2747905251.3296174107l-.0676662775.0154441928Z"/><path class="uuid-10a36a8b-cc8e-49f8-a5b7-b71b1febcd7c" d="M73.3118614115,56.2511731026c-7.1503982677-.30859151-9.8398647404-5.225420422-9.3378879859-11.9966635288.1286596744-3.2281802006-.3784998292-7.5240934879.5125577468-10.0658542902,1.822846215-5.5081139533,8.5787270856-6.860794602,13.8272875583-6.4245970514,6.0490596304-.1105149059,11.8051420595,3.7841432765,11.5107813647,9.7823123189-.1924933673,4.1289733708.5340600584,8.880199227-.5142909298,12.9496770946-1.9506994785,6.5606388143-10.2874157995,5.9099449222-15.826473964,5.7640792125l-.1719737901-.0089537556ZM78.4680379831,50.7503135027c3.0779994987-.3424392722,4.0823016659-3.1959197689,3.8047756176-5.9218195306-.006974515-1.7713633156.0201576147-4.6037943183-.0168752254-6.1108126486.0516491551-4.5858754974-6.4746543395-5.801607422-9.4458755283-3.1848541748-1.5636993085,1.6884808106-1.303262143,3.0950536303-1.3368607872,5.7438840451-.0466739493,5.702795501-.809714952,10.2137119581,6.7979222388,9.4990992859l.1969136845-.0254969769Z"/><path class="uuid-10a36a8b-cc8e-49f8-a5b7-b71b1febcd7c" d="M112.3359397339,47.1813682292c.4075542344-.3132620328.952990132-.400813978,1.4777978734-.44931747,1.4610328155-.0379161704,3.1399352214-.2085183201,3.838158073.6974422108,1.1876876582,3.8382661783-3.1680835647,8.1708875484-6.4425288294,8.6397241153-5.3092862173.3042300724-12.5231435052,1.4879642118-15.5430676758-4.5836844374-1.5510960777-3.8241589938-.6296403233-8.4022562478-.8677807563-12.4111027061-.632847121-6.0783958042,3.0909748239-9.5594585352,8.9850242786-10.1418919101,3.2622820658-.2421934938,6.8387393782-.3577292397,9.5638385226,1.7462297855,1.4702597783,1.0721975497,2.6786052033,2.5899574176,3.404456786,4.1151833961.234734448.5138954908.5067047248,1.1282568649.3003403433,1.6609683478-.5220053914.9966943371-2.5359245287,1.069556979-4.0961954103,1.1657714971-1.3468577058.0682737334-2.2700443244-.7430829835-3.2602051925-1.498909401-2.3147825198-1.6383781967-6.7105113665-1.3357945096-8.2370441419,1.4089130617-.9408361505,2.2406946635-.3342900971,5.2734321459-.4965862712,7.6385968189-.6022014432,4.9323179637,5.0221129201,6.5970868358,8.7993870813,4.9329203395,1.3894010553-.5404015965,1.6602342446-1.8656655969,2.4789704936-2.8411873454l.0954348256-.0796563027Z"/><path class="uuid-10a36a8b-cc8e-49f8-a5b7-b71b1febcd7c" d="M147.5807094317,28.0201760342c.2941968397,1.1643508888.0986432681,3.6595159683.1503152421,5.1017531966-.0329863592.9979424212.0547472608,1.7165886336-.3641280823,2.455484016-1.7281952883,1.7072300401-7.5653831071,4.5269489036-9.3648056543,5.828247544-.6394594713.3770098496-.6344786307.760412051-.0000707578,1.139128488,1.5429816536.9888194011,6.619698307,3.9260082414,8.4930950096,5.0945693378.6301872955.3957807593,1.0618267001.8374205526,1.1541209054,1.6127464104.0595843549,1.7746698655.3102109735,5.2694317124-.1351322217,6.821221765-.287719496.3545528323-1.2171718859-.4010079712-2.7950520154-1.2595974187-3.6467930172-2.1015954864-8.2560037895-4.7615334525-11.9383298581-6.8785049959-.4398251664-.1985367918-.9094168268-.6300047197-1.1275513964-.1025941767-.4045708673,1.7494828491.2460734644,5.7128019138-.3549273109,7.8920022023-.2395268565.4354123384-.6329854279.5279365159-1.1594651343.5934588353-1.0537238997.0883328851-2.572425739.0411311852-3.6828002303.0515573896-.8736741132-.002296822-1.5432280519-.007215177-1.9333520922-.0623026491-.7274631605-.0945387283-.5877200522-.4013047789-.609464514-1.1291342042.0018660151-6.0379993768-.0037345874-37.6549454066.0028048272-41.9789643196.0341300243-.708611293.3332062651-.5910256647,1.3911846217-.6746294798.6434591366-.0158039078,1.5776494544-.0108130844,2.53457864-.0118669247,1.480557124.0927927467,2.5972532384-.2392278675,3.5051889883.3373410685.4784167578,2.4781884845.0425642822,11.6487670303.1861147857,18.1157096863.1520137924,2.4916959809-.4180051314,5.7917780194.4951686711,5.2678671814,2.6495414206-1.3728397333,11.8373196059-6.5994409286,14.668955409-8.1368124417.3045308148-.1446500563.6265748043-.3736884063.8502382254-.1312411438l.0333139421.0545606331Z"/><path class="uuid-10a36a8b-cc8e-49f8-a5b7-b71b1febcd7c" d="M187.3685163765,43.7083616794c.5853587563,3.4942894496-1.7293437845,7.4180229178-4.1819806358,9.4807500649-2.6171551585,2.2575396184-6.4769713385,3.1380694775-9.968535983,3.0952707007-7.5034702922.1266457571-16.7543911483.7779326229-19.3965845328-8.8180148827-.4346970479-1.6849203128-.5651101191-3.2933808987-.5490677736-4.9616296185-.001033487-2.6151276477-.0001716916-9.2881957372-.000457428-13.091469628-.8303795664-10.1317140961,5.1195996505-17.0395258861,15.5923987557-16.7890597117,3.8256210778.0347187966,7.1769186461-.3052010716,10.5821010575,1.0607849183,2.8204220405,1.1368444476,5.0004119131,3.2290962529,6.4949198438,5.8394156387.3808486707.6971425669.9027984172,1.5494763947.7358870586,2.325363322-.6742633903,1.4161332904-2.6019180137,1.403791571-4.4334398582,2.1302529665-.7595887057.2290742634-1.5846192301.498678398-2.3471020636.4742933628-1.2483347216.000608109-1.9269126629-1.1268341822-3.2010220259-2.0170798094-2.0766763713-1.4835150119-4.9792204385-1.2810099561-7.4780274495-1.155554644-8.7693875911.6103181911-5.8592449389,10.7902558781-6.3453364159,16.7555345518.2035497219,4.1578689127-.8168611236,8.2290870611,3.1713940201,10.1203950251,2.4090357309.8252752776,5.3351048757.6105933781,7.7779341748.4250707093,2.1702933823-.2355921645,3.8901422853-1.5731298757,4.6568412592-3.549780163.6116945054-2.0205928401,2.3088527414-2.2061920263,4.1729831882-2.118972587,1.7059390117.0792349986,4.0010712499-.3143887768,4.6574933671.6886266776l.0596014413.1058031068Z"/><path class="uuid-10a36a8b-cc8e-49f8-a5b7-b71b1febcd7c" d="M200.2117569617,56.2511731026c-7.150417473-.3086156341-9.8404152431-5.2252042547-9.3383694616-11.996663527.1286716701-3.2281866197-.3785359402-7.5240958836.5126076871-10.0658542918,1.8230840841-5.5081699204,8.5795573262-6.8607584239,13.8282104474-6.4245970946,6.0490437108-.1105531283,11.8046991263,3.7842195519,11.5102975651,9.7823123966-.1924954512,4.1289733832.5340599536,8.8801991544-.5142916916,12.9496770599-1.9507011486,6.5606412297-10.2874184437,5.9099440711-15.8264794039,5.7640792126l-.1719751424-.0089537556ZM205.3676010792,50.7503135027c3.078161953-.3424381358,4.0826943892-3.1957333805,3.8051148206-5.9218195619-.0069746161-1.7713632904.0201580188-4.603794298-.016875462-6.1108126173.0515708655-4.5858699592-6.4749318722-5.8015943251-9.4460232597-3.1848542349-1.5635885673,1.6885252747-1.3030920629,3.095058993-1.3367128032,5.7438841002-.0466444647,5.7024318077-.8097970648,10.2136944631,6.797584311,9.4990992909l.1969123933-.0254969769Z"/><path class="uuid-10a36a8b-cc8e-49f8-a5b7-b71b1febcd7c" d="M234.5335670236,27.7166362482c1.3704479039-.038215661,3.4661397041.7058912301,4.1267791198.6029486313.1985921461-.0444411904.3167088116-.1644434875.392751291-.3647845634.3099453079-2.857260988.0198301077-11.1290778965.1262555296-14.0453184915.0171179096-.3468078818.0169923796-.6623759978.1954664134-.9156576482.2603690953-.3152437734.7190036829-.3208466206,1.1317443294-.3550093958,1.2634109631-.0436786625,3.9296670782-.0225763171,5.193069305-.0147703062.5892029441.0572557185,1.3967244396-.075358641,1.3305329902.5893037505.0071853829,3.9571922558.0010775092,34.4962572527.0031125067,41.4828168929-.0619724587.9776500543.2132085543,1.4178095534-.4675084455,1.5276470867-1.5148315318.1452939552-3.5142220473.0514236053-5.3212322116.05047155-1.3894135089.0829322503-2.0977330712-1.1433163025-2.8904418423-1.1310746565-.3657547199-.0036626049-.6752331436.097051452-1.0683340574.2354424134-4.3050396811,1.682010794-11.0154947125,1.2970584832-13.9555555757-2.7204368839-1.6871385309-2.4079815934-1.5715961539-4.813465012-1.556653738-7.7388054576.1073524852-3.3185314267-.2590042366-8.0137067535.2333671764-11.038480939,1.2306027131-5.9722295651,7.2888469694-6.5475226739,12.3346031853-6.1730460625l.192044024.0087540797ZM234.7199958043,49.6981001559c5.2577799883-.6742523272,3.8578049773-6.3626225908,4.032954849-10.2328080404.5092722072-5.6054680037-2.1508808104-7.0925418822-7.0951589345-6.5047988397-3.7600525305.6707060617-3.8056139677,3.9121072797-3.704455678,7.4618574065.0437242867,5.7501372599-.9940792152,10.0673526365,6.604811261,9.2927933101l.1618485024-.0170438365Z"/><path class="uuid-10a36a8b-cc8e-49f8-a5b7-b71b1febcd7c" d="M267.3304429919,27.7839684809c9.501455677.7655296579,11.0883308784,6.8624409216,10.4198915089,15.1408262442-.0483787707.6008609288-.2861517643.9655519046-.8788886587.9859664875-2.2734936389.0572199125-8.9865642989.0053565009-12.1833749315.0226200237-2.5698525867.2597299558-4.930532142-.9927667068-4.7482568978,1.9415294988-.2662829292,4.7193385972,5.1039019862,5.9825577936,8.8891118996,4.8303719191,1.8662427712-.3908164401,2.1109431411-2.5416151888,3.6883906278-3.2412749222,1.4454547886-.4357757107,4.1259651265-.4523042457,5.0813047381.1219710086.9580101263.6843864276.6046243924,2.0710875564.4162796,3.0741987361-1.0121799932,4.8218927588-6.3462634686,5.6413349616-10.4754680592,5.626054075-10.2992546672.7129556805-15.6558123402-2.5406760368-14.9314243981-13.5543681865.1017654762-2.9735156791-.3402319818-5.4300431929.5663254633-8.1585233691,1.7282977468-5.4654022188,8.5573402209-7.3627694546,13.9615394016-6.799693343l.1945697061.0103218277ZM259.9942658422,39.2614767553c.0840970883.2436291467.3297850897.1533918021.814021015.1723578268,1.533982334-.0009551936,3.3310478468.0006884889,5.0556605428-.000002091,2.0569551752-.004789528,4.0228697216.0097393666,4.6845218262-.0075472747.1070845862-.017430546.2081954217-.0696253573.2670839205-.1648347262,1.4702341452-7.5835279744-12.1297648486-7.800875946-10.8466837444-.093774604l.0253964399.0938008692Z"/><path class="uuid-4da4f452-f754-4221-bd15-b2a95e69be16" d="M12.2331250188,12.6838124912c4.086331225-.1897285208,13.3471258177-.0079769866,16.5126129356-.0688079653,7.8190048496-.221102561,15.0480938812,2.5130253505,15.3168661697,10.2482018698.1405006073,2.6052770628-.5379989773,5.6744750803-2.2707272762,7.6612464698-.8696668189,1.1070867755-2.2859013813,1.683546307-2.2066821268,2.3261142963.0070778717.0812210454.0338837183.163834261.0799965007.2488217738.3308043024.6617869821,2.1651557948,1.5800025359,3.1698436511,2.6803124863,1.8775547106,1.8770202356,2.5341148194,4.6235031054,2.4498344999,7.2844435789-.1174953008,7.6378021386-5.4490756866,12.2140821081-14.1424770875,13.0122353331-2.4847253598.2426741441-3.9364847443.2204613213-6.597722057.2172499337-4.1420394002-.1332957485-10.6896259133.2755525324-12.4203979187-.1780147677-.084532212-3.1526918385-.3083217732-34.0688232734.0717460002-43.4154387862l.0371067089-.0163642224ZM22.1624673052,30.3050222286c1.4769222113.3164127326,4.5266179707.0406094326,6.5850521758.1291676313,2.0104619792.0088531858,4.0635984143-.0809046977,6.0052973374-.9073675868,2.2152879009-.9084021548,3.6222571834-2.9057983239,3.6687722818-5.27362974.3633186153-5.4138091856-6.1060591422-6.3542751029-10.7063281275-6.118502254-1.5652109026.0058797472-3.783046621-.0136289587-4.784870379.0121439817-.4668545865.0397652196-.7746636467.014187371-.9317601514.4053130712-.184245006,1.5793980643-.0175361086,5.8435259097-.0726809469,8.9798400393.0360558315,1.5632472856-.1067795034,2.4908889487.1810037347,2.7326515227l.0555140751.0403833345ZM22.3995000183,48.9126316288c.7528015049.2532301052,1.9921193935.0635050306,3.8725995073.1213382805,2.6438264378-.0572730692,4.6543985728.1991412568,7.1119029924-.36664733,4.180682269-.9939859062,6.0411815381-4.2349533141,5.3021866817-7.8498408996-1.044561283-4.722214212-5.733927012-5.3620439603-10.0108486232-5.1633271658-1.8467632077.0033564031-4.3132575754-.0075829156-5.4416113344.0061785025-.5911371611.009656614-1.034670566.0416853612-1.0471858628.6646170441-.0374432175,1.3504252005-.0064496593,6.2351252172-.0165917047,9.4594696767.0759056956,1.6711014125-.178468897,2.5531577579.1755402803,3.0902275236l.0540080635.037984368Z"/><path class="uuid-4da4f452-f754-4221-bd15-b2a95e69be16" d="M57.9845918635,56.232847871c-1.6444889478.1501005671-4.9782852473.0287744378-6.5282668468.0462628993-.6987213724-.0612463668-.9371756769.0124924938-.9787365317-.5046327447.1665702395-4.5424728911-.3321302594-33.820689156.1703378065-43.080294951,1.6708645197-.3161298494,5.3084360084-.0712687591,6.704002758-.1243199264.5500159227.0548970546.8211694347-.0303061783.9607715351.3412403972.0470520609,3.5351266613.0100764725,26.5988335788.0213723384,34.2943026077-.0045321958,4.4369687426.0091242542,7.7624199141-.0070242568,8.6823801143-.0162984905.1811717177-.0699204252.2752761698-.2747905251.3296174107l-.0676662775.0154441928Z"/><path class="uuid-4da4f452-f754-4221-bd15-b2a95e69be16" d="M73.3118614115,56.2521354732c-7.1503431496-.308775603-9.8398654563-5.2265352728-9.3378880056-11.9976270144.1286615385-3.2279915264-.3785050332-7.524130524.5125577639-10.0655551942,1.8229678532-5.507885711,8.5786551645-6.8612357288,13.8272875834-6.424889557,6.0488893777-.1104138467,11.8050223197,3.7845915173,11.5107814701,9.7823285645-.1924840522,4.1290122941.5340440398,8.8802402097-.5142910841,12.9497707263-1.9505860719,6.5611223429-10.2870502449,5.9110162385-15.8264739376,5.7649289358l-.1719737901-.008956461ZM78.4680379831,50.7503187446c3.0777586799-.3424552302,4.0823764339-3.1950467658,3.8047755943-5.9208470984-.0069745987-1.7713737132.0201576774-4.6037899302-.0168752026-6.1108241874.0517642609-4.5861476434-6.4742465613-5.8030081077-9.4458756451-3.1858242567-1.5636993,1.6884814296-1.30326198,3.0950543845-1.33686067,5.7438858041-.0466724007,5.7028016445-.8097190214,10.2137079658,6.7979222388,9.4991054225l.1969136845-.0254956842Z"/><path class="uuid-4da4f452-f754-4221-bd15-b2a95e69be16" d="M112.3359397339,47.1820148049c.4075970426-.3131275741.9530230714-.400561123,1.4777978704-.4490247271,1.4610243674-.0378035827,3.1398362983-.2085321306,3.8381580855.6971133294,1.1875203021,3.8380872989-3.1684268443,8.1710457505-6.4425286832,8.6400315897-5.3095555056.3045366045-12.5232225002,1.4877418854-15.5430677668-4.5844590946-1.5510259085-3.824029197-.6296796349-8.4018174318-.8677807465-12.4105025543-.6327837447-6.0784734274,3.0908955061-9.5602780462,8.9850242275-10.1426334123,3.2623360643-.242226458,6.8388192133-.3577211225,9.5638384863,1.746570889,1.4702597912,1.0723765921,2.6786052162,2.5903498557,3.4044567989,4.1156907766.2347316761.5139321911.5067054565,1.1283295124.300340345,1.6610699255-.5219936384.9967214577-2.5359234481,1.0695863291-4.0961954121,1.1657871219-1.3469530541.0682670701-2.2701064367-.7433353346-3.2602051831-1.4993719667-2.3147611171-1.639057426-6.7104696288-1.336314423-8.2370441678,1.4084190498-.9408572354,2.2409066704-.3342778909,5.2739608752-.4965862794,7.6393380604-.602254942,4.9324810568,5.0222471428,6.5959941925,8.7993870598,4.9321672227,1.3892966744-.5403932638,1.6601343975-1.8653016517,2.4789705399-2.8405788619l.0954348256-.0796173482Z"/><path class="uuid-4da4f452-f754-4221-bd15-b2a95e69be16" d="M147.5797420194,28.0201746163c.2941791705,1.1643541628.0986372571,3.6595156811.1503062279,5.1017527312-.0329843592.9979395145.0547450484,1.7165799093-.364094972,2.4554837877-1.7279935656,1.7072002259-7.5647043536,4.5269561312-9.3639541019,5.8282469966-.6394021605.3770109948-.6344210741.7604111188-.0000707647,1.1391283992,1.5428413488.9888205617,6.6190963776,3.9260053016,8.4923227327,5.0945709309.6301889031.3958151008,1.0617396557.8375046377,1.1540159539,1.6128571552.0595738847,1.7749059223.310193685,5.2700068454-.1351266149,6.8220334833-.2877021563.3545976744-1.2170985162-.4010456339-2.7948835268-1.2597244257-3.6465732474-2.1018158469-8.2555055675-4.7620329153-11.9376101824-6.8792267402-.4397984889-.1985712394-.9093876692-.6300567671-1.1274834249-.1026037896-.4045553569,1.7496784317.2460776736,5.7133983728-.3549200465,7.8928467487-.2395142805.4354443697-.6329727204.5279944411-1.1594651441.5935223347-1.0537236801.0883426447-2.5724255326.0411353285-3.6828002284.0515629542-.873674113-.0022968746-1.5432280518-.0072153391-1.9333520921-.0623040378-.7274631605-.0945408333-.5877200521-.4013137147-.609464514-1.1291593463.0018660151-6.0381338234-.0037345874-37.6557838601.0028048272-41.9798990549.0341283406-.7086199405.3332010784-.5910415179,1.3911846235-.6746444969.6434591348-.0158042644,1.5776494526-.0108133299,2.5345786382-.0118671937,1.4805571623.0927927126,2.5972531937-.2392278296,3.5051889883.3373410376.4784170735,2.478188015.0425640546,11.6487661307.1861147864,18.1157080265.1520090718,2.4916779492-.4179877346,5.7917638883.4951387962,5.2678667057,2.6493843519-1.3728412066,11.8366057508-6.5994400886,14.6680711362-8.1368117042.3045121136-.1446504433.626537542-.3736879192.8501869684-.1312411303l.0333119338.0545606281Z"/><path class="uuid-4da4f452-f754-4221-bd15-b2a95e69be16" d="M187.367539814,43.7083690478c.585340213,3.4944263464-1.7293611456,7.4183086752-4.1819806089,9.4812897411-2.6171402795,2.2577750159-6.4768861196,3.1385027795-9.9685360133,3.0956975301-7.5037899352.1268785794-16.7544301967.7773394199-19.3965844738-8.8189228986-.4346913231-1.6849485524-.5651109013-3.293426759-.5490678288-4.9616965838-.0010334873-2.6151277785-.0001716919-9.2881957582-.0004574283-13.0914696863-.8304016445-10.1313330783,5.1200591362-17.0394794032,15.5923986909-16.7890583965,3.8256302039.0347109706,7.1769601505-.3052203213,10.5821011195,1.0609598617,2.8204220434,1.1369989014,5.0004119159,3.2294413666,6.4949198466,5.8395584138.3808355663.6970712641.9027979058,1.549315141.7358870633,2.3251380309-.6743209182,1.4160319327-2.6019272254,1.4037034192-4.4334398586,2.1301592289-.75958871.2290742307-1.5846192344.4986784117-2.3471020679.474293357-1.2483347216.0006081091-1.9269126629-1.1268341823-3.2010220259-2.0170798096-2.0766752231-1.4835071541-4.9792231449-1.2810302556-7.4780274485-1.1555327734-8.7692387515.6107647463-5.8593118,10.7901911242-6.3453363427,16.7555126603.2035496355,4.1578687902-.8168611762,8.2290871765,3.171393946,10.1203950495,2.4090357308.8252752746,5.3351048757.6105933805,7.7779341747.4250707094,2.1702933824-.2355921631,3.8901422854-1.5731298771,4.6568412592-3.5497801635.6116944685-2.0205927661,2.308852757-2.2061920689,4.1729831882-2.1189725872,1.7059400314.0792362132,4.0010745418-.3143925371,4.6574933671.6886336689l.0596014413.1058046474Z"/><path class="uuid-4da4f452-f754-4221-bd15-b2a95e69be16" d="M200.2107803992,56.2521354732c-7.1503623678-.3087997231-9.8404159572-5.2263191144-9.3383694813-11.9976270126.1286735344-3.2279979463-.3785411447-7.52413292.5126077041-10.0655551958,1.8232057246-5.5079416722,8.5794854078-6.8611995527,13.8282104725-6.4248896002,6.0488734561-.1104520677,11.8045793955,3.7846677793,11.5102976704,9.7823286422-.1924861362,4.1290123065.5340439351,8.8802401371-.5142918459,12.9497706916-1.9505877418,6.5611247587-10.2870528892,5.9110153874-15.8264793775,5.7649289358l-.1719751424-.008956461ZM205.3666245167,50.7503187446c3.0779211063-.3424541065,4.0827691569-3.1948603793,3.8051147972-5.9208471297-.0069746999-1.7713736879.0201580815-4.6037899099-.0168754392-6.1108241561.0516859927-4.586142099-6.4745241231-5.8029950062-9.4460233764-3.1858243168-1.5635885587,1.6885258936-1.3030918999,3.0950597472-1.3367126861,5.7438858592-.046642916,5.7024379511-.8098011341,10.2136904706,6.7975843111,9.4991054276l.1969123933-.0254956842Z"/><path class="uuid-4da4f452-f754-4221-bd15-b2a95e69be16" d="M234.5325904611,27.717591503c1.3704111004-.0381983842,3.4661485799.7054669698,4.1267791329.6022200209.1986004849-.044520459.3167101483-.1645807748.3927512782-.364951753.309942694-2.8573215083.019831874-11.1291036809.1262555245-14.045379112.0171179144-.3468080995.0169923844-.6623758389.1954664183-.9156576476.2603690953-.3152437105.7190036829-.3208466651,1.1317443294-.3550093952,1.2634109631-.0436785738,3.9296670782-.0225765204,5.193069305-.0147701029.589209315.057255211,1.3967269892-.0753548186,1.3305329878.5893169295.0071853853,3.957280729.0010775116,34.4970285293.0031125091,41.4837443776-.0619724587.9776719129.2132085543,1.4178412533-.4675084455,1.5276812424-1.5148312355.1452924541-3.5142222393.0514351001-5.3212322116.0504645003-1.3895173437.0829222047-2.0977120228-1.1438363123-2.8904418303-1.1315202179-.3657664457-.0036448979-.6752359671.0971190443-1.0683340703.2355743169-4.3049366414,1.682664534-11.0156683104,1.2973039639-13.9555555789-2.7203701797-1.6870983795-2.4082344913-1.5715976909-4.814023937-1.5566537518-7.7395264721.1073555968-3.3183320096-.2590118335-8.0137471645.233367171-11.0382293299,1.2308714869-5.971751541,7.2892156387-6.5466750442,12.3346032083-6.1723364076l.192044024.0087492303ZM234.7190192418,49.6980945818c5.2577792014-.6742515488,3.8578053054-6.3626184262,4.0329548486-10.2328031811.5093519493-5.6058497329-2.1512859326-7.0912118454-7.0951589407-6.503880076-3.7603084205.6702977777-3.8055479304,3.9123575459-3.7044556795,7.4619159784.0435939316,5.7501859838-.993731974,10.066206029,6.6048112691,9.2918111071l.1618485024-.0170438285Z"/><path class="uuid-4da4f452-f754-4221-bd15-b2a95e69be16" d="M267.3294664294,27.7839794654c9.501620755.7658704513,11.088374366,6.8632385149,10.4198914454,15.1416454204-.0483808687.600900693-.2860980747.9656827774-.8788885903.9861085898-2.2734935357.0572275643-8.9865642041.0053576849-12.1833749364.022623273-2.5698526299.2597299518-4.9305321304-.992766733-4.7482568978,1.94152955-.2663147646,4.7192346458,5.1039889334,5.9827836401,8.8891118976,4.8301582517,1.8662948177-.3910981239,2.1108432734-2.5422259285,3.6883906043-3.2420179594,1.4454449528-.4358138313,4.1259669379-.4523176394,5.0813047631.1219512213.9580220902.6844032186.6046155861,2.0711283188.4162796058,3.0742599889-1.012112748,4.8219652922-6.346036681,5.6423189124-10.4754681024,5.6269645022-10.2991043831.7130400864-15.655974832-2.541466652-14.9314243361-13.5548270706.1017807111-2.9737023239-.340262278-5.4304028752.566325413-8.159036692,1.7282951448-5.4653923778,8.5573431233-7.3627869663,13.9615394275-6.7996832679l.1945697061.0103241926ZM259.9932892797,39.2623586212c.0840970883.2437614014.3297850897.1534750712.814021015.1724513916,1.533982334-.0009554097,3.3310478468.0006886447,5.0556605428-.0000020915,2.0569551752-.0047921287,4.0228697216.009744653,4.6845218262-.0075513724.1071083553-.0174422914.2082071938-.069682449.267083911-.1649241999,1.4707651894-7.5847197438-12.1302467055-7.802119256-10.8466837349-.093825517l.0253964399.0938517892Z"/></svg>